HIERARCHY
ROOT hips
{
  OFFSET 0 10.680822821525009 1.3929502295107734
  CHANNELS 6 Xposition Yposition Zposition Yrotation Xrotation Zrotation
  JOINT spine
  {
    OFFSET -7.042017322922631e-31 0.6058489940359625 0
    CHANNELS 3 Yrotation Xrotation Zrotation
    JOINT chest
    {
      OFFSET 0 1.2699794144455032 0
      CHANNELS 3 Yrotation Xrotation Zrotation
      JOINT upperChest
      {
        OFFSET 0 1.217799211677689 0
        CHANNELS 3 Yrotation Xrotation Zrotation
        JOINT neck
        {
          OFFSET 0 1.5248826104153006 0
          CHANNELS 3 Yrotation Xrotation Zrotation
          JOINT head
          {
            OFFSET 0 0.8197772727844447 0
            CHANNELS 3 Yrotation Xrotation Zrotation
            JOINT leftEye
            {
              OFFSET 0.2793952361220866 0.6769952096623495 0.1830357412467788
              CHANNELS 3 Yrotation Xrotation Zrotation
              End Site
              {
                OFFSET 0.2793952361220866 0.6769952096623495 0.1830357412467788
              }
            }
            JOINT rightEye
            {
              OFFSET -0.27939522230689573 0.676995205357064 0.18303631459760622
              CHANNELS 3 Yrotation Xrotation Zrotation
              End Site
              {
                OFFSET -0.27939522230689573 0.676995205357064 0.18303631459760622
              }
            }
          }
        }
        JOINT leftShoulder
        {
          OFFSET 0.41486978509200423 1.1670505408695453 0
          CHANNELS 3 Yrotation Xrotation Zrotation
          JOINT leftUpperArm
          {
            OFFSET 0.9737926108153417 0 0
            CHANNELS 3 Yrotation Xrotation Zrotation
            JOINT leftLowerArm
            {
              OFFSET 2.5269332222665284 0 0
              CHANNELS 3 Yrotation Xrotation Zrotation
              JOINT leftHand
              {
                OFFSET 2.4263782738425914 0 0
                CHANNELS 3 Yrotation Xrotation Zrotation
                JOINT leftIndexProximal
                {
                  OFFSET 0.724320348022514 0.08170607082582437 0.20360061616140124
                  CHANNELS 3 Yrotation Xrotation Zrotation
                  JOINT leftIndexIntermediate
                  {
                    OFFSET 0.36548960630744587 -0.010566596513783999 -0.01414783573280308
                    CHANNELS 3 Yrotation Xrotation Zrotation
                    JOINT leftIndexDistal
                    {
                      OFFSET 0.22502819650693362 -0.007863819831430696 -0.007567681939621526
                      CHANNELS 3 Yrotation Xrotation Zrotation
                      End Site
                      {
                        OFFSET 0.22502819650693362 -0.007863819831430696 -0.007567681939621526
                      }
                    }
                  }
                }
                JOINT leftLittleProximal
                {
                  OFFSET 0.6720322998298205 0.08170601055037707 -0.3230036039466837
                  CHANNELS 3 Yrotation Xrotation Zrotation
                  JOINT leftLittleIntermediate
                  {
                    OFFSET 0.34583592281688713 5.476543019078406e-8 1.3869203337180114e-7
                    CHANNELS 3 Yrotation Xrotation Zrotation
                    JOINT leftLittleDistal
                    {
                      OFFSET 0.19925728062053938 0.003098047439490381 0.0038303983709246925
                      CHANNELS 3 Yrotation Xrotation Zrotation
                      End Site
                      {
                        OFFSET 0.19925728062053938 0.003098047439490381 0.0038303983709246925
                      }
                    }
                  }
                }
                JOINT leftMiddleProximal
                {
                  OFFSET 0.7300436596551069 0.0817073395107144 0.022661722987926763
                  CHANNELS 3 Yrotation Xrotation Zrotation
                  JOINT leftMiddleIntermediate
                  {
                    OFFSET 0.40758254347686607 -0.0000012383587111308714 2.408460318820138e-7
                    CHANNELS 3 Yrotation Xrotation Zrotation
                    JOINT leftMiddleDistal
                    {
                      OFFSET 0.2514490105498507 0.0000013869132886590307 9.738618134136345e-8
                      CHANNELS 3 Yrotation Xrotation Zrotation
                      End Site
                      {
                        OFFSET 0.2514490105498507 0.0000013869132886590307 9.738618134136345e-8
                      }
                    }
                  }
                }
                JOINT leftRingProximal
                {
                  OFFSET 0.7217261161191838 0.08170601902187746 -0.15043395722184966
                  CHANNELS 3 Yrotation Xrotation Zrotation
                  JOINT leftRingIntermediate
                  {
                    OFFSET 0.37808807487521556 0.0000013754022405443322 2.2046919317952884e-7
                    CHANNELS 3 Yrotation Xrotation Zrotation
                    JOINT leftRingDistal
                    {
                      OFFSET 0.21812105442344254 -0.002713483731960231 -0.004991354517454624
                      CHANNELS 3 Yrotation Xrotation Zrotation
                      End Site
                      {
                        OFFSET 0.21812105442344254 -0.002713483731960231 -0.004991354517454624
                      }
                    }
                  }
                }
                JOINT leftThumbProximal
                {
                  OFFSET 0.10793587079521427 -0.1652791240518252 -0.07775251827190094
                  CHANNELS 3 Yrotation Xrotation Zrotation
                  JOINT leftThumbIntermediate
                  {
                    OFFSET 0.40355819082296684 -0.017484006740276614 0.3177776014416309
                    CHANNELS 3 Yrotation Xrotation Zrotation
                    JOINT leftThumbDistal
                    {
                      OFFSET 0.2318764658022603 -0.018510186824293617 0.21396001800186287
                      CHANNELS 3 Yrotation Xrotation Zrotation
                      End Site
                      {
                        OFFSET 0.2318764658022603 -0.018510186824293617 0.21396001800186287
                      }
                    }
                  }
                }
              }
            }
          }
        }
        JOINT rightShoulder
        {
          OFFSET -0.4148697850920044 1.1670505408695453 0
          CHANNELS 3 Yrotation Xrotation Zrotation
          JOINT rightUpperArm
          {
            OFFSET -0.9737926108153414 0 0
            CHANNELS 3 Yrotation Xrotation Zrotation
            JOINT rightLowerArm
            {
              OFFSET -2.5269332222665293 0 0
              CHANNELS 3 Yrotation Xrotation Zrotation
              JOINT rightHand
              {
                OFFSET -2.42637827384259 0 0
                CHANNELS 3 Yrotation Xrotation Zrotation
                JOINT rightIndexProximal
                {
                  OFFSET -0.724320348022514 0.08170607082582437 0.20360061616140124
                  CHANNELS 3 Yrotation Xrotation Zrotation
                  JOINT rightIndexIntermediate
                  {
                    OFFSET -0.36548960630744587 -0.010566596513783999 -0.01414783573280308
                    CHANNELS 3 Yrotation Xrotation Zrotation
                    JOINT rightIndexDistal
                    {
                      OFFSET -0.22502819650693362 -0.007863819831430696 -0.007567681939621526
                      CHANNELS 3 Yrotation Xrotation Zrotation
                      End Site
                      {
                        OFFSET -0.22502819650693362 -0.007863819831430696 -0.007567681939621526
                      }
                    }
                  }
                }
                JOINT rightLittleProximal
                {
                  OFFSET -0.6720322998298205 0.08170601055037707 -0.3230036039466837
                  CHANNELS 3 Yrotation Xrotation Zrotation
                  JOINT rightLittleIntermediate
                  {
                    OFFSET -0.34583592281688713 5.476543019078406e-8 1.3869203337180114e-7
                    CHANNELS 3 Yrotation Xrotation Zrotation
                    JOINT rightLittleDistal
                    {
                      OFFSET -0.19925728062053938 0.003098047439490381 0.0038303983709246925
                      CHANNELS 3 Yrotation Xrotation Zrotation
                      End Site
                      {
                        OFFSET -0.19925728062053938 0.003098047439490381 0.0038303983709246925
                      }
                    }
                  }
                }
                JOINT rightMiddleProximal
                {
                  OFFSET -0.7300436596551069 0.0817073395107144 0.022661722987926763
                  CHANNELS 3 Yrotation Xrotation Zrotation
                  JOINT rightMiddleIntermediate
                  {
                    OFFSET -0.40758254347686607 -0.0000012383587111308714 2.408460318820138e-7
                    CHANNELS 3 Yrotation Xrotation Zrotation
                    JOINT rightMiddleDistal
                    {
                      OFFSET -0.2514490105498507 0.0000013869132886590307 9.738618134136345e-8
                      CHANNELS 3 Yrotation Xrotation Zrotation
                      End Site
                      {
                        OFFSET -0.2514490105498507 0.0000013869132886590307 9.738618134136345e-8
                      }
                    }
                  }
                }
                JOINT rightRingProximal
                {
                  OFFSET -0.7217261161191838 0.08170601902187746 -0.15043395722184966
                  CHANNELS 3 Yrotation Xrotation Zrotation
                  JOINT rightRingIntermediate
                  {
                    OFFSET -0.37808807487521556 0.0000013754022405443322 2.2046919317952884e-7
                    CHANNELS 3 Yrotation Xrotation Zrotation
                    JOINT rightRingDistal
                    {
                      OFFSET -0.21812105442344254 -0.002713483731960231 -0.004991354517454624
                      CHANNELS 3 Yrotation Xrotation Zrotation
                      End Site
                      {
                        OFFSET -0.21812105442344254 -0.002713483731960231 -0.004991354517454624
                      }
                    }
                  }
                }
                JOINT rightThumbProximal
                {
                  OFFSET -0.10793587079521427 -0.1652791240518252 -0.07775251827190094
                  CHANNELS 3 Yrotation Xrotation Zrotation
                  JOINT rightThumbIntermediate
                  {
                    OFFSET -0.40355819082296684 -0.017484006740276614 0.3177776014416309
                    CHANNELS 3 Yrotation Xrotation Zrotation
                    JOINT rightThumbDistal
                    {
                      OFFSET -0.2318764658022603 -0.018510186824293617 0.21396001800186287
                      CHANNELS 3 Yrotation Xrotation Zrotation
                      End Site
                      {
                        OFFSET -0.2318764658022603 -0.018510186824293617 0.21396001800186287
                      }
                    }
                  }
                }
              }
            }
          }
        }
      }
    }
  }
  JOINT leftUpperLeg
  {
    OFFSET 0.8486251390888677 -0.4421577294694363 0
    CHANNELS 3 Yrotation Xrotation Zrotation
    JOINT leftLowerLeg
    {
      OFFSET 0 -4.10147812638609 0
      CHANNELS 3 Yrotation Xrotation Zrotation
      JOINT leftFoot
      {
        OFFSET -0.0002543926476658853 -4.77292286812444 0.007402811231737388
        CHANNELS 3 Yrotation Xrotation Zrotation
        JOINT leftToes
        {
          OFFSET 0 -0.7027875951174846 1.2062924140498823
          CHANNELS 3 Yrotation Xrotation Zrotation
          End Site
          {
            OFFSET 0 -0.7027875951174846 1.2062924140498823
          }
        }
      }
    }
  }
  JOINT rightUpperLeg
  {
    OFFSET -0.8486251390888677 -0.4421577294694363 0
    CHANNELS 3 Yrotation Xrotation Zrotation
    JOINT rightLowerLeg
    {
      OFFSET 0 -4.10147812638609 0
      CHANNELS 3 Yrotation Xrotation Zrotation
      JOINT rightFoot
      {
        OFFSET 0.0002543926476658853 -4.77292286812444 0.007402811231737388
        CHANNELS 3 Yrotation Xrotation Zrotation
        JOINT rightToes
        {
          OFFSET 0 -0.7027875951174846 1.2062924140498823
          CHANNELS 3 Yrotation Xrotation Zrotation
          End Site
          {
            OFFSET 0 -0.7027875951174846 1.2062924140498823
          }
        }
      }
    }
  }
}
MOTION
Frames: 4
Frame Time: 0.03333333333333333
0.051416218280792236 -1.1267437657388761 0.06630343198776245 -4.467696587524508 9.275430861367576 -9.871867625733898 3.5586210786931236 2.125010441096395 6.194494998830794 -1.1169895220576966 13.471004541107048 7.053333935818881 0 0 0 1.338747667862363 -10.36247646857541 -4.187628659163496 3.5559593612591796 -20.768417063234104 0.5128551076932133 0 0 0 0 0 0 -10.028433681257617 -1.7927930766271896 -12.470342518219377 14.497354958106142 26.717601500576528 -53.103745321107105 -83.27765561184424 -7.696483462822196 8.148097307176027 -11.03512761582443 11.176389551824595 -8.97699972738408 10.40519256894206 5.124807943181953 -84.95882696737313 5.4724593059420465 3.1672986329912063 -67.80802409736367 4.012471650163983 1.9564161338317634 -54.840338868022656 10.651628240428021 6.48225575657152 -98.59086849784211 4.562823718765051 2.756898171791432 -66.49958675892883 4.882920744459702 2.929534607920739 -59.16337133498923 10.351779915076335 5.441800304472729 -87.92521478762498 5.040898181340294 2.187254269885906 -56.64878472709214 4.466381903034943 2.5602922675973216 -58.92808847702573 10.499448512612322 4.159558708375866 -86.57056746506353 4.560663401924388 3.5141287621220965 -66.6335757381654 4.1208139757116085 3.3497499286246613 -64.5539375946622 -2.8548412308791753 13.34861758537191 9.568714305970294 16.195979252306287 4.745333709695152 6.502184814289504 -7.802754608037903 -2.6084676348666656 -3.5154107011930593 11.882493498997546 -5.380701764189728 6.74322241116581 24.96449825999515 1.8565192541062303 32.49607075226577 83.15369296054419 -7.695851096713313 -8.129807868695233 15.258885530757668 -8.497708348168727 -22.71278794276463 -6.905086979697963 2.7124566663517484 60.91719356922644 -5.077155267962411 2.431990904099053 58.65280703347554 -3.0987204910102335 0.7872172495327666 49.36907792687981 -11.653227888481457 6.074486163041719 81.74585423899602 -5.298145475700019 3.8810487487557874 84.40155675270181 -2.977957313987398 -0.3680322531600609 51.57499096509452 -9.660530504947703 2.3067079636529306 64.9835003838695 -5.31132056292925 2.7371407036216118 64.4577363591183 -4.334229716231505 2.26394364588192 56.8669228909657 -10.415464831101682 4.5975856906245465 79.16408214024243 -4.663542668033954 3.82237295320908 70.21553492528531 -2.7602299332983673 1.0204425869164946 54.45130896462032 -5.818034257956022 5.728136256899167 -10.073526986871276 -21.405199873753155 4.2600363751815395 -3.695967768688507 8.380271358394172 -13.619375654104303 3.544677043905682 -12.354704177923892 -59.07948220139957 19.828404850562777 -179.10785792176236 48.85923653548441 -179.13814999646235 0.2735968337615245 13.980360711228343 -1.957917356423828 9.567168415303693e-7 0.09500885534967769 0.0000018622214918167922 -7.150545028584982 -21.5073292671875 19.78500685506722 1.3680590501944 43.40135096721863 -4.3761516724337985 1.575183753374434 -29.575579144323004 -5.0856715115043585 0.0000017537572528062936 -3.1226443307293463 -0.000003327884056290759
0.04644084721803665 -1.044099303153427 0.08559798449277878 -5.469507685734119 10.665293972979617 -9.344256883354491 3.8705053725458174 1.3309218564122745 5.701992318353085 0.5739028660318788 11.49079472061073 5.581642254294237 0 0 0 0.7707333314368734 -7.4112361771216255 -3.598017474172409 2.466800049899259 -23.22461776323984 0.6636389004802007 0 0 0 0 0 0 -7.8038175810558865 -1.944791032349785 -10.512411282806422 11.867239506733688 29.239486655456297 -53.229631779459496 -80.47856023599702 -7.674378777319872 7.738200402181193 -10.241791633213316 6.811856399400163 -6.706400698150521 10.30443987551355 4.361854789172591 -78.75242906775689 5.325765112894268 2.840448656906015 -63.74531844132611 3.7830524136703154 1.6791857121663882 -50.778302887261624 10.703880113916727 6.007177403704508 -93.22385241039262 4.3920115724168 2.44560171192434 -62.45088857014087 4.72399157294271 2.6094611765760263 -55.11478969926037 10.34635368112101 5.01691004306388 -82.41854787580898 4.889247532271082 1.9794814130465228 -53.69800237782208 4.280758331387573 2.254100523801992 -54.81756242496742 10.369892929808097 3.6241710193208805 -81.22806863968414 4.445174375354205 3.178327938777559 -62.56298040659946 3.994164450134718 3.021505019404621 -60.48603657564524 -2.854858057127644 13.348624605214031 9.568687764359128 14.273454951963187 3.7705328887697296 8.47246284830624 -9.813571867286957 -1.7460891306155477 -2.567605325646593 14.120909248405537 -5.872801892751122 6.859371944831725 28.932412066522634 -4.8439849957036545 30.902361384036205 77.20509261052041 -7.6231567989346 -7.260821450601663 15.434433440812727 -9.757566383795831 -21.360278936294883 -6.389084022776434 2.423760395006401 62.097191708131284 -5.069063455558145 2.418750033555955 58.47698514674587 -3.085628500087706 0.7777986074910722 49.193161947102915 -11.114836063617652 5.503596380244282 83.08073724346514 -5.294328529835052 3.864677392245036 84.21070843810031 -2.959998870952258 -0.3757963407887165 51.38402484525441 -9.656195908302172 2.0757771613357203 66.96801166917199 -5.3055164586691586 2.725890125224505 64.31291904115967 -4.327271785701788 2.2532883837630764 56.72095915291853 -10.41064138360441 4.47168898189439 80.235930639808 -4.658909201069901 3.8029826735539793 69.98689636460564 -2.7444008465390834 1.0071144813926416 54.22133666267139 -4.932935381532796 5.2637397838780835 -9.725554603821857 -21.405199873753155 4.2600363751815395 -3.695967768688507 8.380271358394172 -13.619375654104303 3.544677043905682 -15.35266982199235 -65.56907137043757 23.09285581790607 -174.85596257783223 52.04808741703768 -175.61429465642792 0.5009317565409409 11.518927467310105 -1.8093552576133964 -1.4181462686534807e-7 0.07473336308769844 8.727606066552623e-7 -8.068567878585428 -16.01639130630304 17.82000745776394 6.584554144340065 38.79137012868976 -1.5549297999242635 1.1420710638227527 -29.541510727060498 -3.631044643653651 0.0000031965063741282715 -3.068528536571299 -0.0000013663387337024293
0.04603580757975578 -0.840673895743759 0.12108681350946426 -7.548330605477614 12.65973762695075 -7.047592217780211 5.0708180184889 0.3007872779141307 3.930288393253629 5.684080461918682 8.443950587025341 1.660020945701992 0 0 0 -0.43029534962997057 -3.0733430497398677 -2.606913291361625 -2.202241298746169 -25.654421928487416 2.719870031087 0 0 0 0 0 0 -5.4583296386186655 -1.9368094331008678 -7.8934964202437365 10.567983014340134 34.915262805495786 -48.71123815416302 -81.02711523081649 -7.680234365169568 7.81846819822083 -5.227703719848089 -2.8132080908545563 -4.765003090793912 9.816769967550986 2.9606806403760837 -67.3763026664407 5.041287910097276 2.3372274692845325 -57.188302319504615 3.373179713967247 1.2680384850496065 -44.22127824720431 10.68539993273681 5.095922658597029 -83.70377532993199 4.07359552276849 1.9738267070845146 -55.95794371359647 4.423177526682409 2.1219298313148744 -48.622295512996224 10.244193183871408 4.2576871333605775 -72.68877479647331 4.656960441158714 1.6995408393869422 -49.52399405202646 3.93308632904838 1.7862892720290606 -48.12331255012706 9.997183060545042 2.676656774292748 -71.86565944674523 4.209216374762115 2.6556435760531873 -55.98836558614328 3.7413818718260616 2.512621213450274 -53.91504668290695 -2.854837550500167 13.348602668208082 9.568698429439449 10.663098446089435 1.9962036686345168 12.397184517530826 -13.228260238681798 0.055691950529195254 -1.9772981044750488 18.959160130718907 -5.459684916502188 3.169466382749839 29.334792676644998 -16.325187716021716 31.32933411763436 70.64705499522175 -7.440032136060469 -6.317128397352137 8.684698129615832 -10.242372674724729 -18.310373815764482 -4.807063807274965 1.464388272541775 63.38737846342743 -5.046365035343707 2.3822969134383376 57.990080277805106 -3.049191686434188 0.7517759897347481 48.70595751820141 -10.50189609522725 2.7625874875741205 84.83606558370387 -5.295995899794504 3.8716913264329755 84.29271349907344 -2.963023992348762 -0.3744767252925734 51.41596189455724 -9.517687581365792 0.7733198876106498 70.58969815100365 -5.288511897497528 2.693476224809356 63.89313432965799 -4.304710389229888 2.2191336251608735 56.2520667661017 -10.384681604565436 3.822727203596849 81.44364160055383 -4.654596218026395 3.7850448499956144 69.77578338305374 -2.728625211311696 0.9939467504919226 53.993333763813084 -2.9072854043717706 4.188104780809871 -8.987291399662414 -21.405199873753155 4.2600363751815395 -3.695967768688507 8.380271358394172 -13.619375654104303 3.544677043905682 -13.177635551207127 -71.82826061838792 21.289122325504287 -164.3801728894593 64.56328641883775 -165.9005690314112 1.0699721712536272 7.672934061046609 0.21772562123363529 -6.362088692690802e-7 -0.2923393146360581 0.0000035481768287895236 -10.678653869757852 -5.299450646884694 11.355308787750793 6.512515393790077 27.485823931223383 -1.9716213614232192 7.706308917257144 -20.869760228799056 -0.5140863471146925 0.011237511880909379 -10.3760017143219 -2.504522333760744
0.06174357235431671 -0.6491617878946379 0.1602270007133484 -8.262872011298676 14.666543022557713 -3.927764316109171 6.493834893151631 -0.2972748052953164 1.8524203992091168 11.055246890016393 6.170659959142327 -2.8709852194620225 0 0 0 -1.620127895840406 -1.4192976277625364 -1.438677717772684 -8.339634202141738 -24.993956569230726 5.168734948476161 0 0 0 0 0 0 -5.221668398930357 -1.9814415675369585 -6.194618044570215 14.580901822492493 40.35611326355249 -39.6129179385763 -87.07494771181004 -7.694816396163224 8.70486504316902 2.320044074985032 -11.672318012731909 -4.9146417149355335 9.037826853793602 1.8716646758788784 -57.66016847576964 4.806961951928399 2.0033622247605316 -52.562723798518014 3.0571471605792975 1.0075285188760257 -39.595334612675515 10.542334958870345 4.335526304854791 -75.94263785635164 3.8200497125505035 1.666586967665907 -51.41453941666865 4.180869812093305 1.8025385765222397 -44.07941348776872 10.076546685895142 3.665892252557384 -64.74670129907665 4.529200853069456 1.5617754885873247 -47.36796533059328 3.652306634422855 1.4783397987495872 -43.33746541447457 9.551496629252 1.9298162478538514 -64.31089649976259 4.00721808118401 2.3043972757708078 -51.34476303626991 3.528569048040725 2.172224449037234 -49.27384877727284 -2.854834613660993 13.348636012457911 9.56871488942567 7.535987848210459 0.22475784950904645 15.991447506060428 -15.699952695571884 1.839571142787543 -2.578499497368788 19.543028631953405 -5.000234067530784 1.1753906600916335 27.552346760963495 -24.164608738475252 30.15176138647536 69.77187658414937 -7.4075039042071325 -6.19293697320276 1.6206046650318222 -12.984741150884837 -9.005183422754593 -1.2459272716082745 -0.8049371110041477 64.53127329360406 -5.0147893904336796 2.3326993496794537 57.32355241987013 -2.998946976504754 0.716659210128771 48.03901727248523 -10.935560093361062 -2.625016296346291 86.97132325643703 -5.295051217737739 3.867758843889859 84.24683306729635 -2.8868548260472235 -0.4066411005799896 50.60820665812008 -9.487588902201692 -2.3399368285786792 75.81196554057549 -5.353967990277239 2.821723891272568 65.54386540711684 -4.366546691267569 2.31415871334277 57.55136246224504 -10.375312288750655 2.2620149611704363 83.07113764594772 -4.677068958585399 3.8812224631994665 70.90783867877381 -2.799188153456563 1.0536245990777235 55.01876305079349 -0.7964207500552742 3.041965313000118 -8.259487709330346 -21.405199873753155 4.2600363751815395 -3.695967768688507 8.380271358394172 -13.619375654104303 3.544677043905682 -5.323499149192781 -74.34008984684796 12.023522637459532 -154.7663192568876 83.72320799981601 -156.0189052437432 1.1423442496219463 3.1283186264885265 -0.04932374613140459 -0.000002301594113895008 -0.201950168808136 -4.4065005910449064e-7 -16.610027801564755 1.9687260194838814 3.428048391876629 9.536214091496083 18.37827337243575 -0.14080159213703689 11.13452953200073 -4.333542436977731 3.7337846751332253 0.3453855809908171 -19.680480445984205 -7.398158683749589
